<svg width="1176" height="260" viewBox="0 0 1176 260" fill="none" xmlns="http://www.w3.org/2000/svg">
<path fill-rule="evenodd" clip-rule="evenodd" d="M175.937 8.06885H121.599V105.384H121.01C114.158 95.7679 106.226 88.8811 97.2183 84.7158C88.2105 81.1877 78.1749 79.428 67.1136 79.428C45.4775 79.9633 28.9327 89.0537 17.4764 106.705C5.8263 124.033 0 143.766 0 165.909C0 191.794 6.21612 213.507 18.6536 231.051C30.6933 248.913 48.366 258.111 71.6686 258.646C84.496 258.436 95.8005 255.033 105.59 248.438C115.283 241.909 121.892 233.823 125.419 224.19H126.151V254.7H175.94V8.06885H175.937ZM55.9115 167.192C55.9115 155.409 58.8494 145.45 64.7257 137.31C70.1124 129.169 78.1445 124.992 88.8245 124.776C99.0151 124.992 106.997 129.166 112.776 137.31C118.655 145.447 121.695 156.209 121.889 169.597C121.695 182.236 118.462 192.519 112.191 200.446C106.019 208.795 98.227 213.082 88.8242 213.296C78.5397 213.296 70.6045 208.903 65.0184 200.122C58.9489 191.984 55.9115 181.009 55.9115 167.192Z" fill="#A5A5A5"/>
<path fill-rule="evenodd" clip-rule="evenodd" d="M200.679 248.172C223.497 255.394 246.752 259.007 270.451 259.007C297.745 259.241 321.492 253.462 341.693 241.662C362.224 229.751 372.813 208.024 373.467 176.482C373.467 164.922 371.975 155.229 368.993 147.404C365.903 139.465 361.652 132.865 356.237 127.607C351.047 122.354 345.135 117.917 338.509 114.295C331.992 110.791 325.093 107.929 317.8 105.708C311.128 103.394 304.444 101.117 297.751 98.8766C291.011 96.7746 284.936 94.7315 279.525 92.7442C274.114 90.6452 269.803 88.0175 266.601 84.8635C263.177 81.8264 261.465 77.7987 261.465 72.774C261.91 62.0263 267.123 55.3121 277.101 52.6288C281.647 51.2286 286.304 50.2931 291.078 49.8256C295.845 49.5889 300.169 49.4719 304.052 49.4719C322.463 49.4719 340.094 53.2687 356.953 60.8685L360.944 9.27186C344.22 3.32342 324.105 0.233774 300.598 0C288.681 0 276.821 1.05242 265.015 3.15698C253.096 5.60939 242.113 9.69852 232.054 15.422C222.214 21.145 214.236 29.0252 208.111 39.0716C201.663 49.1151 198.439 61.6725 198.439 76.7374C198.655 98.8093 204.672 114.985 216.485 125.268C221.894 130.524 227.967 134.902 234.702 138.407C241.325 142.029 248.004 145.066 254.735 147.515C262.024 149.857 268.922 152.134 275.44 154.349C281.949 156.456 287.802 158.73 292.991 161.183C298.512 163.519 302.816 166.612 305.904 170.472C308.885 174.322 310.379 179.23 310.379 185.183C310.155 194.996 306.172 201.541 298.427 204.809C291.011 208.197 281.94 209.772 271.202 209.539C244.536 209.07 222.79 203.578 205.974 193.059L200.679 248.172Z" fill="#343434"/>
<path fill-rule="evenodd" clip-rule="evenodd" d="M389.525 254.702H450.582V167.138H474.958C536.745 166.436 568.083 139.559 568.964 86.5121C569.191 31.4719 534.172 4.07177 463.921 4.30556H389.525V254.702ZM450.579 51.6261H467.469C478.957 51.6261 488.605 53.9058 496.423 58.4629C503.89 63.7274 507.74 72.6716 507.967 85.3018C507.74 98.0432 503.89 107.049 496.423 112.313C488.608 117.575 478.96 120.089 467.469 119.852H450.579V51.6261ZM549.259 254.702H611.308L629.425 201.286H715.522L732.515 254.702H799.528L711.196 4.30556H636.316L549.259 254.702ZM705.853 153.931H646.552L677.026 55.9287H677.858L705.853 153.931ZM990.289 196.57C972.944 204.979 953.838 209.299 932.965 209.536C910.168 209.536 891.868 202.465 878.059 188.32C863.825 174.413 856.595 155.129 856.38 130.468C856.595 106.622 863.181 87.2779 876.13 72.4348C888.864 57.361 906.15 49.7056 927.993 49.4719C948.647 49.4719 968.608 55.3441 987.877 67.0827L992.853 12.9605C970.919 4.7878 948.229 0.467547 924.803 0C886.279 0 854.934 10.7418 830.749 32.2231C806.247 54.052 793.782 86.8016 793.35 130.468C794.21 177.163 808.548 210.322 836.366 229.938C849.318 239.981 863.546 247.277 879.061 251.825C894.472 256.613 909.826 259.007 925.124 259.007C940.637 258.774 953.799 257.552 964.606 255.333C975.305 253.474 984.827 251.316 993.174 248.874L990.289 196.57ZM1176 207.381H1071.78V150.634H1166.86V103.349H1071.78V51.6261H1172.31V4.30556H1010.79V254.702H1176V207.381Z" fill="#343434"/>
</svg>
