<svg width="1176" height="274" viewBox="0 0 1176 274" fill="none" xmlns="http://www.w3.org/2000/svg">
<path d="M207.44 238.945C206.197 239.194 204.908 238.961 203.823 238.291C202.738 237.621 201.933 236.563 201.564 235.32L175.764 165.399C173.721 159.209 169.602 153.965 164.141 150.599C158.68 147.234 152.231 145.967 145.944 147.024C142.721 147.592 139.628 148.768 136.821 150.491L65.4959 194.333L63.6846 195.035C62.7804 195.191 61.8521 195.106 60.9897 194.786L3.42572 172.876C2.49619 172.521 1.68351 171.903 1.08127 171.094C0.47904 170.285 0.111757 169.319 0.0217297 168.305C-0.0682972 167.292 0.122595 166.273 0.572417 165.366C1.02224 164.459 1.71269 163.701 2.56425 163.179L166.995 63.2143C169.983 61.3963 173.269 60.1525 176.692 59.5438C183.338 58.3547 190.179 59.6513 195.972 63.1981C201.764 66.7448 206.124 72.306 208.257 78.8706L258.863 231.355C259.114 232.091 259.202 232.876 259.122 233.651C259.041 234.427 258.795 235.175 258.399 235.841C258.014 236.513 257.49 237.09 256.865 237.533C256.239 237.975 255.526 238.272 254.777 238.401L207.44 238.922V238.945Z" fill="#A5A5A5"/>
<path d="M181.661 273.838C180.398 274.047 179.104 273.914 177.906 273.453L66.5555 231.129C65.2643 230.64 64.1343 229.787 63.296 228.668C62.4577 227.549 61.9453 226.209 61.8183 224.803C61.6912 223.398 61.9545 221.984 62.5778 220.726C63.2012 219.468 64.159 218.416 65.3406 217.693L146.584 168.118C147.36 167.646 148.213 167.323 149.102 167.167C150.82 166.838 152.595 167.166 154.093 168.089C155.59 169.011 156.707 170.465 157.231 172.174L187.36 264.05C187.701 265.065 187.822 266.144 187.715 267.212C187.608 268.28 187.276 269.312 186.742 270.235C186.198 271.176 185.463 271.985 184.586 272.606C183.709 273.228 182.711 273.648 181.661 273.838Z" fill="#A5A5A5"/>
<path d="M256.876 67.1793H301.65L328.223 155.679C333.105 171.97 335.689 182.959 335.689 182.959H336.352C336.352 182.959 338.605 171.97 343.487 155.679L370.723 67.1793H414.812L356.762 237.835H314.572L256.854 67.1793H256.876Z" fill="#343434"/>
<path d="M496.098 62.8745C447.546 62.8745 425.7 89.1344 424.596 119.02H463.671C464.997 102.729 475.158 95.0253 495.899 95.0253C514.432 95.0253 523.709 103.182 523.709 115.394C523.709 128.309 511.119 130.779 483.53 134.63C446.442 140.068 416.666 152.054 416.666 189.643C416.666 223.606 440.721 241.936 474.716 241.936C503.41 241.936 515.316 231.74 523.709 218.848H524.372C525.477 226.552 527.023 234.459 529.673 237.858H566.319V125.794C566.319 85.7131 546.24 62.8518 496.142 62.8518L496.098 62.8745ZM524.792 177.657C524.792 194.174 510.677 210.261 485.495 210.261C469.834 210.261 459.452 204.597 459.452 188.532C459.452 172.468 470.939 167.257 493.889 162.046C504.934 159.327 516.84 156.608 524.792 152.077V177.657Z" fill="#343434"/>
<path d="M594.682 0H638.793V237.835H594.682V0Z" fill="#343434"/>
<path d="M659.822 152.688C659.822 101.8 695.165 62.557 746.721 62.557C798.276 62.557 833.641 101.8 833.641 152.688C833.641 203.577 798.298 242.842 746.721 242.842C695.143 242.842 659.822 203.577 659.822 152.688ZM788.911 152.688C788.911 119.427 773.647 96.7923 746.721 96.7923C719.794 96.7923 704.553 119.427 704.553 152.688C704.553 185.949 719.485 208.244 746.721 208.244C773.956 208.244 788.911 185.949 788.911 152.688Z" fill="#343434"/>
<path d="M896.485 94.4586H897.457C907.53 75.1545 918.861 65.1852 938.322 65.1852C941.833 64.9771 945.351 65.4301 948.703 66.522V106.127H947.732C918.839 103.114 898.098 118.747 898.098 154.705V237.857H854.008V67.1791H896.485V94.4586Z" fill="#343434"/>
<path d="M967.811 67.1792H1011.9V237.835H967.811V67.1792ZM1015.1 25.8748C1015.1 30.9923 1013.62 35.9949 1010.85 40.25C1008.08 44.5051 1004.14 47.8215 999.531 49.7799C994.922 51.7383 989.85 52.2507 984.957 51.2523C980.063 50.2539 975.569 47.7896 972.041 44.171C968.513 40.5523 966.11 35.9419 965.137 30.9227C964.164 25.9035 964.663 20.7009 966.573 15.9729C968.482 11.2449 971.715 7.20384 975.863 4.36068C980.012 1.51753 984.889 0 989.878 0C996.568 0 1002.98 2.72608 1007.72 7.57854C1012.45 12.431 1015.1 19.0123 1015.1 25.8748Z" fill="#343434"/>
<path d="M1034.92 203.237L1120.56 103.771V102.774H1044.66V67.1793H1171.78V103.431L1088.11 200.586V201.583H1176V237.835H1034.92V203.237Z" fill="#343434"/>
</svg>
